<?xml version="1.0" encoding="UTF-8"?>
<svg version="1.1" xmlns="http://www.w3.org/2000/svg" width="350" height="90">
<path d="M0 0 C2.36750945 2.30520657 4.44030268 4.63368832 6.375 7.3125 C7.035 6.9825 7.695 6.6525 8.375 6.3125 C14.31448041 5.34341733 20.34948869 5.09547169 26.35546875 4.890625 C27.58019646 4.84878082 27.58019646 4.84878082 28.82966614 4.80609131 C30.53961149 4.7501687 32.249632 4.69650178 33.9597168 4.64501953 C35.70051213 4.58982876 37.44109826 4.52760834 39.18139648 4.45849609 C41.7183284 4.35788663 44.25516778 4.2782009 46.79296875 4.203125 C47.56497116 4.16890442 48.33697357 4.13468384 49.13237 4.09942627 C54.68352354 3.97023101 58.77365299 4.98943663 63.0546875 8.8125 C66.375 12.97916667 66.375 12.97916667 66.375 16.3125 C71.30539517 15.18261777 74.98405304 13.53489991 79.1875 10.7265625 C80.2703125 10.02660156 80.2703125 10.02660156 81.375 9.3125 C82.43332031 8.60996094 83.49164063 7.90742188 84.58203125 7.18359375 C88.69027254 4.85606521 92.42214528 4.75407406 97.0625 4.75 C103.78866813 4.76620949 103.78866813 4.76620949 109.375 1.3125 C114.06094212 -0.24948071 118.77941177 0.08672252 123.6875 0.0625 C124.72068359 0.041875 125.75386719 0.02125 126.81835938 0 C132.40988236 -0.02869287 136.59529485 0.05642254 141.375 3.3125 C145.8210632 8.23921868 146.71501975 11.25927068 146.66796875 17.76171875 C146.2261932 21.60811119 144.89918105 23.41711586 142.375 26.3125 C141.715 26.6425 141.055 26.9725 140.375 27.3125 C140.25099965 31.63572461 140.16047744 35.95799602 140.1003418 40.2824707 C140.07526356 41.75205525 140.04119144 43.22151587 139.99780273 44.69067383 C139.93684501 46.80841681 139.90872684 48.92450576 139.88671875 51.04296875 C139.86053467 52.31551514 139.83435059 53.58806152 139.80737305 54.89916992 C140.52131885 59.19236405 142.17255203 60.48800944 145.375 63.3125 C146.8361044 67.69581321 147.10921471 71.74097447 146.375 76.3125 C143.77107284 81.10092981 140.53991493 83.65707855 135.375 85.3125 C132.98806644 85.72237748 130.59055037 86.07366913 128.1875 86.375 C123.62811012 86.83099699 123.62811012 86.83099699 119.375 88.3125 C117.203125 88.5859375 117.203125 88.5859375 114.625 88.6875 C113.78453125 88.73648438 112.9440625 88.78546875 112.078125 88.8359375 C109.375 88.3125 109.375 88.3125 106.6875 85.84375 C102.67727038 82.21649086 98.31394874 82.49731497 93.125 82.4375 C92.21492188 82.40398437 91.30484375 82.37046875 90.3671875 82.3359375 C85.71752748 82.03339507 85.71752748 82.03339507 81.375 83.3125 C78.48519609 83.49128097 75.64174462 83.59029906 72.75 83.625 C71.57630859 83.66850586 71.57630859 83.66850586 70.37890625 83.71289062 C65.1687405 83.76905327 61.617628 82.86791756 57.08837891 80.27416992 C55.22606186 79.15809338 55.22606186 79.15809338 52.375 78.3125 C51.01976097 78.93342625 49.68655944 79.60395639 48.375 80.3125 C42.34231387 81.3526183 36.29720803 81.46751766 30.1875 81.5625 C29.41519043 81.58393066 28.64288086 81.60536133 27.84716797 81.62744141 C22.93750331 81.65601673 19.63358062 81.01666658 15.375 78.3125 C13.125 75.75 13.125 75.75 11.375 73.3125 C10.715 72.6525 10.055 71.9925 9.375 71.3125 C8.385 71.8075 8.385 71.8075 7.375 72.3125 C2.13297574 72.75534291 -1.76537237 72.30619339 -6.625 70.3125 C-9.31688499 70.14046224 -11.92332402 70.22091776 -14.625 70.3125 C-14.810625 71.17875 -14.99625 72.045 -15.1875 72.9375 C-17.36119917 78.04096762 -21.03133733 81.05210856 -25.98828125 83.4609375 C-28.93925833 84.4139938 -31.40154026 84.64726026 -34.5 84.6875 C-35.48742187 84.71585937 -36.47484375 84.74421875 -37.4921875 84.7734375 C-40.625 84.3125 -40.625 84.3125 -43.73046875 82.2265625 C-48.87149222 79.05338814 -54.35637975 80.4882454 -60.0625 81.3125 C-61.15626953 81.44011719 -62.25003906 81.56773438 -63.37695312 81.69921875 C-69.18295375 82.46123449 -73.63987774 83.60228226 -78.73168945 86.45263672 C-82.2130971 88.03374797 -85.73305033 87.94727052 -89.5 87.875 C-90.67973389 87.86400269 -90.67973389 87.86400269 -91.88330078 87.8527832 C-99.33077561 87.60309996 -104.97788492 85.45972093 -110.6484375 80.56640625 C-111.62683594 79.94572266 -111.62683594 79.94572266 -112.625 79.3125 C-116.13481544 80.4173404 -116.13481544 80.4173404 -118.47265625 81.48828125 C-120.67499721 82.33164594 -122.47085132 82.58621739 -124.8125 82.75 C-128.65656678 82.96035864 -128.65656678 82.96035864 -130.9375 85.375 C-135.1544232 88.41510742 -139.58805978 87.75395597 -144.625 87.3125 C-145.5015625 87.12042969 -146.378125 86.92835937 -147.28125 86.73046875 C-149.76743423 86.09449458 -149.76743423 86.09449458 -152.625 87.3125 C-159.41092652 88.04774248 -165.06566247 87.48504436 -170.625 83.3125 C-171.59836725 82.17558595 -172.53580377 81.00705484 -173.4375 79.8125 C-176.58836013 75.76875308 -180.11780082 74.86037395 -184.87890625 73.31640625 C-193.30902916 70.23455477 -197.855321 64.23626606 -201.625 56.3125 C-205.22479067 47.60723699 -204.78216925 36.56645603 -201.7265625 27.78515625 C-197.01436057 17.2077668 -190.01038069 8.32133008 -179.03515625 3.97265625 C-169.48144173 1.35583655 -160.59221087 3.97954836 -152.15625 8.69140625 C-150.27563355 9.85354775 -148.43650736 11.04600202 -146.625 12.3125 C-145.944375 11.714375 -145.26375 11.11625 -144.5625 10.5 C-139.22593217 6.52596012 -134.27218592 5.00407573 -127.73828125 4.62109375 C-125.57451623 4.41862393 -125.57451623 4.41862393 -123.62890625 3.30859375 C-120.09251475 1.55073833 -116.47433467 1.76450444 -112.625 2.3125 C-108.11564885 4.65068208 -104.76763549 7.30009735 -102.9375 12.125 C-102.49873513 15.19635409 -102.56544409 18.2155928 -102.625 21.3125 C-101.635 20.8175 -101.635 20.8175 -100.625 20.3125 C-99.02326955 20.15941426 -97.41834895 20.03861793 -95.8125 19.9375 C-91.63960624 19.57071827 -89.10355009 18.736944 -85.625 16.3125 C-84.635 16.3125 -83.645 16.3125 -82.625 16.3125 C-82.398125 15.735 -82.17125 15.1575 -81.9375 14.5625 C-80.24638488 11.66344551 -78.40058514 10.18440626 -75.625 8.3125 C-69.80857967 6.79485108 -63.84416582 7.08908871 -57.875 7.0625 C-56.73289063 7.041875 -55.59078125 7.02125 -54.4140625 7 C-47.4695083 6.96807102 -42.07356905 7.70563166 -35.625 10.3125 C-35.49738281 9.70535156 -35.36976563 9.09820312 -35.23828125 8.47265625 C-34.27582736 5.08261165 -32.51691135 3.17424551 -29.625 1.3125 C-20.70700966 -2.18801957 -8.88384572 -4.13558335 0 0 Z " fill="#F9A93B" transform="translate(203.625,1.6875)"/>
<path d="M0 0 C7.12425399 2.52056939 11.89003232 5.67456625 15.25 12.5625 C17.20330254 21.51513664 16.66037266 29.98534638 12 38 C11.071875 38.886875 10.14375 39.77375 9.1875 40.6875 C8.465625 41.450625 7.74375 42.21375 7 43 C7.05728998 46.74360341 7.05728998 46.74360341 8 50 C12.455 49.505 12.455 49.505 17 49 C17.495 51.475 17.495 51.475 18 54 C11.94915254 57.79661017 11.94915254 57.79661017 8.375 58.5625 C4.72152484 57.69720325 3.29567103 55.91612266 1 53 C0.06160857 50.6588585 -0.46476215 48.48155731 -1 46 C-1.72445312 46.04640625 -2.44890625 46.0928125 -3.1953125 46.140625 C-9.3659306 46.37099474 -13.20628256 46.32603769 -18 42 C-23.48065712 36.06262146 -24.42693514 30.87361904 -24.234375 22.98828125 C-23.51055975 13.75963682 -18.50070452 8.33583158 -12 2 C-7.89754287 -0.73497142 -4.81782584 -0.72415174 0 0 Z " fill="#FEFAF4" transform="translate(37,18)"/>
<path d="M0 0 C0.79075928 0.00523682 1.58151855 0.01047363 2.39624023 0.01586914 C3.67724609 0.02070313 3.67724609 0.02070313 4.98413086 0.02563477 C5.88196289 0.03401367 6.77979492 0.04239258 7.70483398 0.05102539 C8.6065332 0.05553711 9.50823242 0.06004883 10.43725586 0.06469727 C12.67234712 0.07652315 14.90730835 0.09300319 17.14233398 0.11352539 C17.80233398 1.43352539 18.46233398 2.75352539 19.14233398 4.11352539 C18.48233398 4.77352539 17.82233398 5.43352539 17.14233398 6.11352539 C15.16233398 6.11352539 13.18233398 6.11352539 11.14233398 6.11352539 C11.14233398 22.61352539 11.14233398 39.11352539 11.14233398 56.11352539 C13.45233398 56.11352539 15.76233398 56.11352539 18.14233398 56.11352539 C18.76733398 57.92602539 18.76733398 57.92602539 19.14233398 60.11352539 C17.14233398 63.11352539 17.14233398 63.11352539 13.84155273 63.84399414 C12.50595447 64.01011333 11.16851595 64.16192498 9.82983398 64.30102539 C9.16532227 64.38288086 8.50081055 64.46473633 7.81616211 64.54907227 C4.2432738 64.96961995 0.7387048 65.20395638 -2.85766602 65.11352539 C-3.35266602 62.63852539 -3.35266602 62.63852539 -3.85766602 60.11352539 C-0.39551952 58.06188302 0.73622634 58.11352539 5.14233398 58.11352539 C5.14233398 50.19352539 5.14233398 42.27352539 5.14233398 34.11352539 C2.50233398 34.77352539 -0.13766602 35.43352539 -2.85766602 36.11352539 C-6.19162498 36.57852493 -9.5001224 36.83373009 -12.85766602 37.11352539 C-12.85766602 42.39352539 -12.85766602 47.67352539 -12.85766602 53.11352539 C-10.87766602 53.11352539 -8.89766602 53.11352539 -6.85766602 53.11352539 C-6.19766602 53.77352539 -5.53766602 54.43352539 -4.85766602 55.11352539 C-5.23266602 57.23852539 -5.23266602 57.23852539 -5.85766602 59.11352539 C-9.14925918 59.17142892 -12.44072205 59.207088 -15.73266602 59.23852539 C-16.66981445 59.2552832 -17.60696289 59.27204102 -18.57250977 59.28930664 C-19.4684082 59.29575195 -20.36430664 59.30219727 -21.28735352 59.30883789 C-22.11477051 59.31931152 -22.9421875 59.32978516 -23.79467773 59.34057617 C-25.85766602 59.11352539 -25.85766602 59.11352539 -27.85766602 57.11352539 C-27.48266602 54.98852539 -27.48266602 54.98852539 -26.85766602 53.11352539 C-24.54766602 53.11352539 -22.23766602 53.11352539 -19.85766602 53.11352539 C-19.85766602 39.25352539 -19.85766602 25.39352539 -19.85766602 11.11352539 C-22.16766602 11.11352539 -24.47766602 11.11352539 -26.85766602 11.11352539 C-27.48266602 9.23852539 -27.48266602 9.23852539 -27.85766602 7.11352539 C-25.85766602 5.11352539 -25.85766602 5.11352539 -23.88647461 4.88647461 C-23.10095215 4.89694824 -22.31542969 4.90742188 -21.50610352 4.91821289 C-20.22993164 4.92788086 -20.22993164 4.92788086 -18.92797852 4.93774414 C-17.59379883 4.96288086 -17.59379883 4.96288086 -16.23266602 4.98852539 C-14.88688477 5.00206055 -14.88688477 5.00206055 -13.51391602 5.01586914 C-11.29490016 5.03947569 -9.07641524 5.07240229 -6.85766602 5.11352539 C-6.47547834 6.76967196 -6.143715 8.43809563 -5.85766602 10.11352539 C-6.18766602 10.44352539 -6.51766602 10.77352539 -6.85766602 11.11352539 C-9.16766602 11.11352539 -11.47766602 11.11352539 -13.85766602 11.11352539 C-13.85766602 17.38352539 -13.85766602 23.65352539 -13.85766602 30.11352539 C-11.81579102 29.78352539 -9.77391602 29.45352539 -7.67016602 29.11352539 C-3.59513463 28.45493446 -0.01314988 28.11352539 4.14233398 28.11352539 C4.14233398 21.18352539 4.14233398 14.25352539 4.14233398 7.11352539 C2.16233398 7.11352539 0.18233398 7.11352539 -1.85766602 7.11352539 C-2.51766602 6.45352539 -3.17766602 5.79352539 -3.85766602 5.11352539 C-3.11170184 0.19016183 -3.11170184 0.19016183 0 0 Z " fill="#FEFBF6" transform="translate(319.857666015625,13.886474609375)"/>
<path d="M0 0 C2.31336288 2.00883243 2.92489339 2.59630199 3.5 5.6875 C2.97617373 9.15784902 2.35986885 10.00890483 0.3125 12.6875 C-1.41266751 15.24384065 -2.07724951 16.36695534 -1.69921875 19.46484375 C-1.13450524 21.28744991 -0.53631374 23.09992279 0.08984375 24.90234375 C1.72407705 30.46434807 1.75593388 36.23498986 2 42 C3.32 42.33 4.64 42.66 6 43 C7.98 40.525 7.98 40.525 10 38 C11.32 38.33 12.64 38.66 14 39 C12.81030691 43.36220799 11.84054896 46.43963402 8 49 C4.90509314 49.55856514 2.0665874 49.73425332 -1 49 C-3.68037132 46.95893986 -4.82048611 45.62274663 -5.7578125 42.37109375 C-5.87898438 41.40300781 -6.00015625 40.43492188 -6.125 39.4375 C-6.3415625 37.86548828 -6.3415625 37.86548828 -6.5625 36.26171875 C-6.706875 35.18535156 -6.85125 34.10898437 -7 33 C-7.36312312 30.91456374 -7.73733381 28.83101362 -8.125 26.75 C-8.29257813 25.83734375 -8.46015625 24.9246875 -8.6328125 23.984375 C-8.75398438 23.32953125 -8.87515625 22.6746875 -9 22 C-13.66066975 20.72890825 -15.71728868 21.24532695 -21 22 C-21 27.94 -21 33.88 -21 40 C-18.36 40 -15.72 40 -13 40 C-12.375 41.875 -12.375 41.875 -12 44 C-14.66782556 46.66782556 -16.60604884 46.59610663 -20.3125 47.125 C-22.00826172 47.37636719 -22.00826172 47.37636719 -23.73828125 47.6328125 C-26.54309685 47.9485642 -29.18368625 48.15389693 -32 48 C-33 47 -33 47 -33.125 44.5 C-33 42 -33 42 -32 41 C-30.35 41 -28.7 41 -27 41 C-27 35.06 -27 29.12 -27 23 C-28.32 22.67 -29.64 22.34 -31 22 C-30.67 20.35 -30.34 18.7 -30 17 C-29.01 17 -28.02 17 -27 17 C-27 12.38 -27 7.76 -27 3 C-29.31 3 -31.62 3 -34 3 C-34.625 1.125 -34.625 1.125 -35 -1 C-28.14899274 -7.85100726 -7.30414325 -5.23726338 0 0 Z " fill="#FEF9F3" transform="translate(165,24)"/>
<path d="M0 0 C3.15098413 3.35147712 4.65137285 7.55667203 6.35546875 11.7578125 C6.66196854 12.50207489 6.96846832 13.24633728 7.28425598 14.01315308 C7.92819327 15.58038816 8.5693081 17.14878553 9.20776367 18.71826172 C10.18804909 21.12634886 11.17826963 23.53016835 12.16992188 25.93359375 C12.79486091 27.45809157 13.41922988 28.98282324 14.04296875 30.5078125 C14.3397905 31.22865021 14.63661224 31.94948792 14.94242859 32.69216919 C17 37.76861722 17 37.76861722 17 40 C17.8353125 39.505 17.8353125 39.505 18.6875 39 C21.30284522 37.8690399 23.1806646 37.84337026 26 38 C26.495 39.98 26.495 39.98 27 42 C24.60835832 43.32066755 22.21219784 44.63161792 19.8125 45.9375 C19.13896484 46.31068359 18.46542969 46.68386719 17.77148438 47.06835938 C14.19379242 49.00554868 11.1013655 50.49827956 7 51 C6.1875 49.3125 6.1875 49.3125 6 47 C8.4375 44.25 8.4375 44.25 11 42 C10.34 40.35 9.68 38.7 9 37 C4.38 37.33 -0.24 37.66 -5 38 C-5.33 39.65 -5.66 41.3 -6 43 C-5.01 43 -4.02 43 -3 43 C-3.33 44.65 -3.66 46.3 -4 48 C-10.27 48 -16.54 48 -23 48 C-23.33 46.35 -23.66 44.7 -24 43 C-23 42 -23 42 -20.49609375 41.90234375 C-19.48675781 41.91394531 -18.47742188 41.92554688 -17.4375 41.9375 C-16.42558594 41.94652344 -15.41367188 41.95554688 -14.37109375 41.96484375 C-13.19740234 41.98224609 -13.19740234 41.98224609 -12 42 C-11.89453857 41.36610352 -11.78907715 40.73220703 -11.68041992 40.07910156 C-7.78784892 16.82083143 -7.78784892 16.82083143 -5 7 C-6.15628906 7.12568359 -6.15628906 7.12568359 -7.3359375 7.25390625 C-8.33882812 7.35574219 -9.34171875 7.45757813 -10.375 7.5625 C-11.87160156 7.71912109 -11.87160156 7.71912109 -13.3984375 7.87890625 C-16 8 -16 8 -18 7 C-17.67 5.35 -17.34 3.7 -17 2 C-3.97350993 -0.59602649 -3.97350993 -0.59602649 0 0 Z " fill="#FEFAF5" transform="translate(196,11)"/>
<path d="M0 0 C2.475 0.495 2.475 0.495 5 1 C5.1567564 8.71589817 4.67453101 16.31516461 4 24 C2.35 24.33 0.7 24.66 -1 25 C-1.17015625 24.41992188 -1.3403125 23.83984375 -1.515625 23.2421875 C-3.07299349 18.22215928 -4.63701787 14.07634197 -8 10 C-10.01633305 8.86693843 -10.01633305 8.86693843 -12 9 C-14.35641524 10.91406662 -14.35641524 10.91406662 -14.1953125 14.2578125 C-14.17210938 15.53398437 -14.14890625 16.81015625 -14.125 18.125 C-14.09792969 20.04699219 -14.09792969 20.04699219 -14.0703125 22.0078125 C-14.04710938 22.99523437 -14.02390625 23.98265625 -14 25 C-10.86445527 26.28623578 -7.73479522 27.42947402 -4.5 28.4375 C0.08416013 29.96809167 3.66093798 31.38389066 6.8125 35.1875 C8.6555716 39.55266958 8.8149471 43.46802599 7.37890625 47.9296875 C5.28469234 52.26703719 2.5389064 54.4504623 -1.8515625 56.34375 C-6.78982929 57.85216604 -10.69311623 57.56009305 -15.5 55.5 C-16.325 55.005 -17.15 54.51 -18 54 C-17.95875 54.94875 -17.9175 55.8975 -17.875 56.875 C-18 60 -18 60 -20 62 C-23.53571429 61.46428571 -23.53571429 61.46428571 -25 60 C-25.37995034 51.96516773 -25.02875351 43.97283967 -24 36 C-22.34385343 35.61781233 -20.67542976 35.28604898 -19 35 C-17.38765914 36.61234086 -17.57108581 38.65950791 -17.25 40.875 C-16.47843618 44.97951003 -16.47843618 44.97951003 -13.8125 48.125 C-10.22973828 49.23963698 -7.73286042 49.53326577 -4 49 C-0.8735887 47.0405988 -0.8735887 47.0405988 1 44 C1.58228923 40.82703565 1.58228923 40.82703565 0 38 C-3.4205139 36.31974756 -6.41475853 35.30485413 -10.1328125 34.58984375 C-15.93300838 33.45406395 -17.77002798 31.69814112 -21 27 C-23.37113155 22.2577369 -22.49271791 15.12135165 -21.25 10.0625 C-19.87022678 6.6820556 -19.05919397 5.01262761 -16 3 C-11.31734962 2.39578705 -8.46147982 2.37152998 -4.5 5 C-3.2625 5.99 -3.2625 5.99 -2 7 C-1.34 4.69 -0.68 2.38 0 0 Z " fill="#FEFAF4" transform="translate(85,16)"/>
<path d="M0 0 C1.92756013 -0.04888759 3.85714486 0.00772704 5.78399658 0.07928467 C7.78399658 2.07928467 7.78399658 2.07928467 8.04962158 5.23162842 C8.04446533 6.48072998 8.03930908 7.72983154 8.03399658 9.01678467 C8.04173096 10.88656982 8.04173096 10.88656982 8.04962158 12.79412842 C7.78399658 16.07928467 7.78399658 16.07928467 5.78399658 19.07928467 C1.90899658 18.20428467 1.90899658 18.20428467 0.78399658 17.07928467 C0.64142469 13.74310235 0.74171501 10.41952861 0.78399658 7.07928467 C-3.17600342 7.07928467 -7.13600342 7.07928467 -11.21600342 7.07928467 C-11.21600342 20.27928467 -11.21600342 33.47928467 -11.21600342 47.07928467 C-8.90600342 47.07928467 -6.59600342 47.07928467 -4.21600342 47.07928467 C-3.55600342 48.39928467 -2.89600342 49.71928467 -2.21600342 51.07928467 C-4.21600342 53.07928467 -4.21600342 53.07928467 -6.46258545 53.30633545 C-7.3737915 53.29586182 -8.28499756 53.28538818 -9.22381592 53.27459717 C-10.20994873 53.26815186 -11.19608154 53.26170654 -12.21209717 53.25506592 C-13.24463623 53.23830811 -14.27717529 53.22155029 -15.34100342 53.20428467 C-16.38127686 53.19526123 -17.42155029 53.18623779 -18.49334717 53.17694092 C-21.06779434 53.15332214 -23.64178554 53.12038616 -26.21600342 53.07928467 C-26.77850342 51.14178467 -26.77850342 51.14178467 -27.21600342 49.07928467 C-26.72100342 48.58428467 -26.72100342 48.58428467 -26.21600342 48.07928467 C-23.57600342 48.07928467 -20.93600342 48.07928467 -18.21600342 48.07928467 C-18.21600342 34.87928467 -18.21600342 21.67928467 -18.21600342 8.07928467 C-22.17600342 8.07928467 -26.13600342 8.07928467 -30.21600342 8.07928467 C-30.05100342 8.90428467 -29.88600342 9.72928467 -29.71600342 10.57928467 C-29.15704297 14.49200784 -29.14793155 18.1311164 -29.21600342 22.07928467 C-31.09100342 22.70428467 -31.09100342 22.70428467 -33.21600342 23.07928467 C-36.30625413 19.98903396 -36.28170702 16.2893368 -36.96600342 12.07928467 C-37.11682373 11.24655029 -37.26764404 10.41381592 -37.42303467 9.55584717 C-37.55580811 8.75920654 -37.68858154 7.96256592 -37.82537842 7.14178467 C-37.94880615 6.41088623 -38.07223389 5.67998779 -38.19940186 4.92694092 C-38.20488037 4.31721436 -38.21035889 3.70748779 -38.21600342 3.07928467 C-35.39636458 0.25964583 -32.64499273 0.72687767 -28.86444092 0.66522217 C-27.76514755 0.63617294 -27.76514755 0.63617294 -26.64364624 0.60653687 C-24.29288469 0.54671065 -21.94206889 0.50045 -19.59100342 0.45428467 C-18.02978408 0.41608772 -16.46858544 0.37703498 -14.90740967 0.33709717 C-9.93926865 0.21533255 -4.9659446 0.17767268 0 0 Z " fill="#FEF8EF" transform="translate(251.21600341796875,17.92071533203125)"/>
<path d="M0 0 C2.475 0.495 2.475 0.495 5 1 C5 6.94 5 12.88 5 19 C3.68 19.33 2.36 19.66 1 20 C-0.859375 18.6015625 -0.859375 18.6015625 -2.75 16.625 C-6.83619446 12.76154923 -9.44214294 12.09924745 -15 12 C-17.82092577 16.83396759 -17.33004421 21.60625128 -17.3125 27.0625 C-17.32861328 28.06861328 -17.34472656 29.07472656 -17.36132812 30.11132812 C-17.36197266 31.07619141 -17.36261719 32.04105469 -17.36328125 33.03515625 C-17.36626221 33.9156665 -17.36924316 34.79617676 -17.37231445 35.70336914 C-16.92330533 38.47309295 -16.23684268 39.35053087 -14 41 C-11.13864603 41.5514324 -11.13864603 41.5514324 -8 41.5 C-6.948125 41.5309375 -5.89625 41.561875 -4.8125 41.59375 C-1.82522939 41.27077844 -1.82522939 41.27077844 -0.15234375 38.73046875 C0.91264146 36.20699532 1.3486995 34.51308002 1.4375 31.8125 C1.623125 30.554375 1.80875 29.29625 2 28 C4.0625 26.5 4.0625 26.5 6 26 C8 28 8 28 8.3125 31.125 C7.86407882 36.68542263 6.56330053 41.09472748 3 45.4375 C-1.3335528 48.82308813 -6.4008736 48.50598869 -11.68359375 48.48828125 C-16.8450716 47.72834635 -19.88905121 45.08093563 -23 41 C-24.60878557 36.1736433 -24.22614456 31.24187181 -24.25 26.1875 C-24.270625 25.10662109 -24.29125 24.02574219 -24.3125 22.91210938 C-24.34769403 15.74572594 -23.72086919 11.12099701 -18.875 5.5625 C-14.72201814 3.30544464 -11.49102799 3.86542451 -7 5 C-3.4375 6.5625 -3.4375 6.5625 -1 8 C-1.0309375 6.2984375 -1.0309375 6.2984375 -1.0625 4.5625 C-1 1 -1 1 0 0 Z " fill="#FEFAF5" transform="translate(121,29)"/>
<path d="M0 0 C2.475 0.495 2.475 0.495 5 1 C5 6.94 5 12.88 5 19 C3.35 19 1.7 19 0 19 C-1.37482707 17.36739286 -2.70647667 15.69774938 -4 14 C-7.71441765 11.94729551 -10.79955703 11.80463056 -15 12 C-17.72501736 16.71369015 -17.33053193 21.18418601 -17.3125 26.5 C-17.32861328 27.45003906 -17.34472656 28.40007813 -17.36132812 29.37890625 C-17.36197266 30.29542969 -17.36261719 31.21195313 -17.36328125 32.15625 C-17.36626221 32.98962891 -17.36924316 33.82300781 -17.37231445 34.68164062 C-16.91374973 37.53707053 -15.97483177 38.91267409 -14 41 C-9.31643563 41.97246527 -4.59490487 41.87340029 -0.375 39.5625 C1.34500866 36.35702932 1.57092045 33.62714948 1.7265625 30.0234375 C2 28 2 28 4 26 C6.125 26.375 6.125 26.375 8 27 C8.42425997 33.92957958 7.95481159 39.10502109 3.625 44.8125 C-1.42619437 48.50375742 -6.93708947 48.77854389 -13 48 C-17.89472807 45.64327908 -20.31615602 42.67187656 -23 38 C-24.3066568 34.08002959 -24.18421613 30.33513617 -24.1875 26.25 C-24.19974609 25.46367188 -24.21199219 24.67734375 -24.22460938 23.8671875 C-24.2429965 16.48782164 -23.22558444 10.55218346 -18 5 C-14.55389094 3.27694547 -10.77537825 3.620565 -7 4 C-3.4375 5.5 -3.4375 5.5 -1 7 C-1.020625 6.030625 -1.04125 5.06125 -1.0625 4.0625 C-1 1 -1 1 0 0 Z " fill="#FEFAF5" transform="translate(283,26)"/>
<path d="M0 0 C4.62619705 0.11156424 7.2203633 1.26555814 10.75 4.375 C14.84004565 9.97806969 14.54663989 15.68322495 13.75 22.375 C12.68516944 24.9471881 11.64864274 26.2983595 9.75 28.375 C9.09 27.88 8.43 27.385 7.75 26.875 C3.96995332 24.98497666 0.90272884 24.43728704 -3.25 25.375 C-6.25333267 27.70836666 -6.25333267 27.70836666 -8.25 30.375 C-11.62631413 27.43907467 -12.06014398 25.0356394 -12.55859375 20.67578125 C-12.89711755 12.82818399 -11.39080189 8.31489026 -6.25 2.375 C-3.87839852 0.00339852 -3.24378878 0.05516648 0 0 Z " fill="#F9A738" transform="translate(32.25,24.625)"/>
<path d="M0 0 C12.625 -0.25 12.625 -0.25 16 2 C15.51999859 6.32001266 14.38496591 8.27322191 11 11 C6.87498123 13.17106251 5.01880595 13 0 13 C0 8.71 0 4.42 0 0 Z " fill="#F9A83A" transform="translate(146,26)"/>
<path d="M0 0 C0.66 0 1.32 0 2 0 C2.8394882 2.10171867 3.67139656 4.20646625 4.5 6.3125 C5.19609375 8.07013672 5.19609375 8.07013672 5.90625 9.86328125 C7 13 7 13 7 16 C4.03 16 1.06 16 -2 16 C-1.85764543 14.27054347 -1.71095618 12.54144346 -1.5625 10.8125 C-1.48128906 9.84957031 -1.40007812 8.88664062 -1.31640625 7.89453125 C-1.02333849 5.21350398 -0.57296246 2.6337014 0 0 Z " fill="#F9AC43" transform="translate(195,27)"/>
<path d="M0 0 C0.99 0.33 1.98 0.66 3 1 C1.54782324 2.50596108 0.08807139 4.00462104 -1.375 5.5 C-2.18710938 6.3353125 -2.99921875 7.170625 -3.8359375 8.03125 C-6 10 -6 10 -8 10 C-8 10.99 -8 11.98 -8 13 C-8.99 13.33 -9.98 13.66 -11 14 C-9.49665796 8.65478385 -5.82879909 4.86491984 -2 1 C-1.34 0.67 -0.68 0.34 0 0 Z " fill="#FAAE4A" transform="translate(16,11)"/>
<path d="M0 0 C5.875 4.625 5.875 4.625 7 8 C4.13792848 6.71700242 1.9754912 5.469364 0 3 C0 2.01 0 1.02 0 0 Z " fill="#FAB04B" transform="translate(29,78)"/>
<path d="M0 0 C0.94875 0.04125 1.8975 0.0825 2.875 0.125 C2.545 1.775 2.215 3.425 1.875 5.125 C1.545 4.135 1.215 3.145 0.875 2.125 C-1.105 2.125 -3.085 2.125 -5.125 2.125 C-3.125 0.125 -3.125 0.125 0 0 Z " fill="#F9B14F" transform="translate(188.125,17.875)"/>
</svg>
